<?xml version="1.0" encoding="UTF-8" standalone="no"?>
<svg
   xmlns:dc="http://purl.org/dc/elements/1.1/"
   xmlns:cc="http://creativecommons.org/ns#"
   xmlns:rdf="http://www.w3.org/1999/02/22-rdf-syntax-ns#"
   xmlns:svg="http://www.w3.org/2000/svg"
   xmlns="http://www.w3.org/2000/svg"
   xmlns:sodipodi="http://sodipodi.sourceforge.net/DTD/sodipodi-0.dtd"
   xmlns:inkscape="http://www.inkscape.org/namespaces/inkscape"
   width="493"
   height="161"
   version="1.1"
   id="svg358"
   sodipodi:docname="logo.svg"
   inkscape:version="1.0.1 (c497b03c, 2020-09-10)">
  <metadata
     id="metadata364">
    <rdf:RDF>
      <cc:Work
         rdf:about="">
        <dc:format>image/svg+xml</dc:format>
        <dc:type
           rdf:resource="http://purl.org/dc/dcmitype/StillImage" />
      </cc:Work>
    </rdf:RDF>
  </metadata>
  <defs
     id="defs362" />
  <sodipodi:namedview
     pagecolor="#ffffff"
     bordercolor="#666666"
     borderopacity="1"
     objecttolerance="10"
     gridtolerance="10"
     guidetolerance="10"
     inkscape:pageopacity="0"
     inkscape:pageshadow="2"
     inkscape:window-width="1440"
     inkscape:window-height="855"
     id="namedview360"
     showgrid="false"
     inkscape:zoom="2.2231237"
     inkscape:cx="247.39964"
     inkscape:cy="119.63412"
     inkscape:window-x="0"
     inkscape:window-y="23"
     inkscape:window-maximized="1"
     inkscape:current-layer="svg358" />
  <g
     fill="none"
     fill-rule="evenodd"
     id="g356">
    <g
       fill="#FFF"
       id="g344" />
    <g
       opacity=".7"
       transform="translate(0 36)"
       fill="#F6F8FA"
       id="g354" />
  </g>
  <path
     d="m 42.679205,150.55025 c -5.03502,-1.29984 -8.93754,-5.01142 -11.75765,-11.18302 -1.96739,-4.30516 -2.5224,-7.01407 -7.73004,-37.7271 -2.59839,-15.324527 -3.75426,-21.423913 -10.05325,-53.044215 -5.87042,-29.469924 -5.85334,-29.343608 -4.40202,-32.45481 0.68617,-1.470997 2.20362,-2.74983 4.20251,-3.541773 1.53996,-0.610158 4.64787,-0.637563 6.12062,-0.05395 1.41365,0.560127 3.7114,3.032118 4.78599,5.148723 0.45972,0.90549 2.97068,8.658644 5.5797,17.229415 l 4.74371,15.583198 -0.68167,1.455343 c -1.00139,2.137915 -1.64579,5.0301 -1.64938,7.402632 -0.002,1.758996 5.30953,33.086386 6.46027,38.09506 1.77535,7.730777 5.4022,13.160417 10.3353,15.472527 2.19869,1.03047 2.88829,1.19163 5.69494,1.33085 2.65274,0.13158 3.61555,0.0375 5.68799,-0.55562 3.33149,-0.95352 5.45635,-2.0855 7.11239,-3.78919 l 1.37097,-1.41042 1.77986,1.5963 c 2.25172,2.01948 4.4611,3.08182 7.74683,3.72548 7.37647,1.44487 13.48927,-0.45378 17.49719,-5.43458 0.73933,-0.91883 0.78804,-0.93264 1.14661,-0.32508 0.88761,1.50409 3.544615,3.76888 5.469085,4.66132 4.74198,2.19942 11.05429,2.11839 15.88689,-0.20392 4.06063,-1.95124 8.06623,-7.56602 9.25839,-12.977811 0.42624,-1.934684 1.03815,-12.032909 1.14938,-18.96735 0.0124,-0.771375 0.0874,-0.799297 1.86526,-0.694262 2.50144,0.147766 4.68435,-0.84453 8.10185,-3.682923 9.11939,-7.574252 13.01379,-10.25131 19.13932,-13.156294 5.19284,-2.462819 9.14227,-3.475592 12.88784,-3.30479 2.44191,0.111353 3.24433,0.292174 4.75125,1.070794 6.34242,3.27706 8.00339,10.959779 3.56286,16.480585 -0.4815,0.598629 -3.03208,2.434151 -5.66832,4.078889 -7.54384,4.707173 -11.84336,8.545508 -18.01725,16.085714 -5.80643,7.091238 -10.21396,13.829618 -17.87479,27.325848 -6.21676,10.95264 -11.73912,19.39627 -14.188,21.69384 -1.04187,0.97746 -2.72365,2.17512 -3.73717,2.66146 -3.86372,1.85377 -3.46005,1.83578 -40.811825,1.81821 -25.91842,-0.0122 -34.60925,-0.11183 -35.76463,-0.40995 z m 10.2684,-43.64194 c -1.695,-0.37846 -4.09596,-2.44421 -5.1775,-4.45482 -1.24383,-2.31207 -1.9657,-5.73225 -5.12507,-24.282209 -2.32845,-13.671164 -3.0315,-18.505746 -2.92204,-20.092652 0.58036,-8.411231 11.55785,-12.482156 17.3278,-6.425608 2.49402,2.617857 3.01209,4.234309 3.75976,11.730028 0.29975,3.005753 1.08457,10.311452 1.74401,16.23482 1.56013,14.01359 1.78014,17.033623 1.44764,19.869405 -0.56678,4.833206 -2.9507,7.100846 -7.96922,7.581126 -0.91162,0.0872 -2.2999,0.0151 -3.08507,-0.16016 z m 26.79408,0.0332 c -5.79427,-1.13508 -7.41268,-5.0496 -8.77075,-21.215495 -0.28968,-3.447862 -1.1409,-12.634281 -1.89161,-20.413937 -1.41859,-14.70146 -1.49684,-17.891198 -0.48433,-19.741168 1.07164,-1.958216 3.47106,-4.075317 5.70219,-5.03147 1.79578,-0.769563 2.57213,-0.908729 5.16445,-0.925727 2.67012,-0.01749 3.26345,0.08638 4.7527,0.831979 2.3619,1.182477 4.6525,3.604657 5.54263,5.861033 0.66482,1.685047 0.77949,3.01674 1.2304,14.289562 1.01976,25.493737 1.25555,33.391187 1.06719,35.739007 -0.31911,3.977286 -1.65842,6.910546 -4.07337,8.921166 -1.78287,1.48445 -5.44331,2.23312 -8.23968,1.68532 z m 28.365865,0.0353 c -3.44326,-0.72885 -5.31156,-2.29326 -6.56337,-5.49636 -1.574705,-4.028644 -1.634965,-4.778849 -2.427315,-30.222335 -0.72082,-23.144541 -0.71404,-23.522938 0.46288,-25.882293 1.764405,-3.536827 5.252495,-5.644373 9.714465,-5.869818 2.22434,-0.112385 3.07464,-0.0073 4.72894,0.584182 3.56054,1.273204 6.61288,4.683555 7.17493,8.016906 0.20406,1.210185 -0.17378,18.911606 -0.86816,40.670801 -0.25143,7.879333 -0.31942,8.507615 -1.18598,10.95813 -1.08565,3.070287 -2.87521,5.465067 -4.86099,6.505247 -1.55397,0.81382 -4.27056,1.13643 -6.17534,0.73326 z"
     color="#000000"
     color-rendering="auto"
     dominant-baseline="auto"
     image-rendering="auto"
     solid-color="#000000"
     stop-color="#000000"
     style="font-variant-ligatures:normal;font-variant-position:normal;font-variant-caps:normal;font-variant-numeric:normal;font-variant-alternates:normal;font-variant-east-asian:normal;font-feature-settings:normal;font-variation-settings:normal;text-indent:0;text-decoration:none;text-decoration-line:none;text-decoration-style:solid;text-decoration-color:#000000;text-transform:none;text-orientation:mixed;white-space:normal;shape-padding:0;shape-margin:0;inline-size:0;isolation:auto;mix-blend-mode:normal;stroke-width:0.281984"
     id="path224" />
  <text
     xml:space="preserve"
     style="font-style:normal;font-weight:normal;font-size:40px;line-height:1.25;font-family:sans-serif;fill:#000000;fill-opacity:1;stroke:none"
     x="207.81569"
     y="98.060219"
     id="text389"><tspan
       sodipodi:role="line"
       id="tspan387"
       x="207.81569"
       y="98.060219">Chaz Kondo</tspan></text>
</svg>
